<mxfile host="app.diagrams.net" modified="2021-02-10T18:31:48.467Z" agent="5.0 (Windows NT 10.0; Win64; x64) AppleWebKit/537.36 (KHTML, like Gecko) Chrome/88.0.4324.146 Safari/537.36" etag="BLzphDCbc0UQLpF3a8Lc" version="14.2.9" type="github">
  <diagram id="Fy_DSxfuRaloU6ZHcAtb" name="Page-1">
    <mxGraphModel dx="1360" dy="777" grid="1" gridSize="10" guides="1" tooltips="1" connect="1" arrows="1" fold="1" page="1" pageScale="1" pageWidth="850" pageHeight="1100" math="0" shadow="0">
      <root>
        <mxCell id="0" />
        <mxCell id="1" parent="0" />
        <mxCell id="e9_0gmz5ZAOUCiMjLGnS-2" value="&lt;span style=&quot;font-family: &amp;#34;arial&amp;#34; ; text-indent: -24px&quot;&gt;&lt;font style=&quot;font-size: 12px&quot;&gt;Service = service-X, mode=local, method=0, user=root&amp;nbsp;&lt;/font&gt;&lt;/span&gt;" style="text;html=1;strokeColor=none;fillColor=none;align=center;verticalAlign=middle;whiteSpace=wrap;rounded=0;" parent="1" vertex="1">
          <mxGeometry x="133" y="110" width="140" height="110" as="geometry" />
        </mxCell>
        <mxCell id="e9_0gmz5ZAOUCiMjLGnS-1" value="" style="endArrow=classic;html=1;strokeWidth=2;entryX=0;entryY=0.5;entryDx=0;entryDy=0;" parent="1" target="e9_0gmz5ZAOUCiMjLGnS-3" edge="1">
          <mxGeometry width="50" height="50" relative="1" as="geometry">
            <mxPoint x="33" y="203" as="sourcePoint" />
            <mxPoint x="413" y="193" as="targetPoint" />
          </mxGeometry>
        </mxCell>
        <mxCell id="e9_0gmz5ZAOUCiMjLGnS-3" value="AND" style="whiteSpace=wrap;html=1;aspect=fixed;fillColor=#1ba1e2;fontColor=#ffffff;strokeColor=none;" parent="1" vertex="1">
          <mxGeometry x="283" y="160" width="80" height="80" as="geometry" />
        </mxCell>
        <mxCell id="e9_0gmz5ZAOUCiMjLGnS-4" value="Create Mask" style="whiteSpace=wrap;html=1;aspect=fixed;fillColor=#1ba1e2;fontColor=#ffffff;strokeColor=none;" parent="1" vertex="1">
          <mxGeometry x="173" y="290" width="80" height="80" as="geometry" />
        </mxCell>
        <mxCell id="e9_0gmz5ZAOUCiMjLGnS-5" value="" style="endArrow=classic;html=1;strokeWidth=2;entryX=0;entryY=0.5;entryDx=0;entryDy=0;edgeStyle=orthogonalEdgeStyle;rounded=0;" parent="1" target="e9_0gmz5ZAOUCiMjLGnS-4" edge="1">
          <mxGeometry width="50" height="50" relative="1" as="geometry">
            <mxPoint x="93" y="200" as="sourcePoint" />
            <mxPoint x="403" y="360" as="targetPoint" />
            <Array as="points">
              <mxPoint x="93" y="330" />
            </Array>
          </mxGeometry>
        </mxCell>
        <mxCell id="e9_0gmz5ZAOUCiMjLGnS-6" value="&lt;span style=&quot;font-family: &amp;#34;arial&amp;#34; ; text-indent: -24px&quot;&gt;&lt;font style=&quot;font-size: 12px&quot;&gt;Service = X, mode=X, method=0, user=X&amp;nbsp;&lt;/font&gt;&lt;/span&gt;" style="text;html=1;strokeColor=none;fillColor=none;align=center;verticalAlign=middle;whiteSpace=wrap;rounded=0;" parent="1" vertex="1">
          <mxGeometry x="83" y="340" width="100" height="60" as="geometry" />
        </mxCell>
        <mxCell id="e9_0gmz5ZAOUCiMjLGnS-9" value="Hash" style="rounded=0;whiteSpace=wrap;html=1;fillColor=#1ba1e2;strokeColor=#006EAF;fontColor=#ffffff;" parent="1" vertex="1">
          <mxGeometry x="389" y="155" width="85" height="90" as="geometry" />
        </mxCell>
        <mxCell id="e9_0gmz5ZAOUCiMjLGnS-10" value="" style="endArrow=classic;html=1;strokeWidth=2;exitX=1;exitY=0.5;exitDx=0;exitDy=0;entryX=0;entryY=0.75;entryDx=0;entryDy=0;edgeStyle=orthogonalEdgeStyle;rounded=0;" parent="1" source="e9_0gmz5ZAOUCiMjLGnS-4" target="e9_0gmz5ZAOUCiMjLGnS-3" edge="1">
          <mxGeometry width="50" height="50" relative="1" as="geometry">
            <mxPoint x="283" y="210" as="sourcePoint" />
            <mxPoint x="403" y="210" as="targetPoint" />
            <Array as="points">
              <mxPoint x="263" y="330" />
              <mxPoint x="263" y="220" />
            </Array>
          </mxGeometry>
        </mxCell>
        <mxCell id="e9_0gmz5ZAOUCiMjLGnS-11" value="" style="endArrow=classic;html=1;strokeWidth=2;exitX=1;exitY=0.5;exitDx=0;exitDy=0;entryX=0;entryY=0.5;entryDx=0;entryDy=0;" parent="1" source="e9_0gmz5ZAOUCiMjLGnS-3" target="e9_0gmz5ZAOUCiMjLGnS-9" edge="1">
          <mxGeometry width="50" height="50" relative="1" as="geometry">
            <mxPoint x="363" y="203" as="sourcePoint" />
            <mxPoint x="423" y="203" as="targetPoint" />
          </mxGeometry>
        </mxCell>
        <mxCell id="e9_0gmz5ZAOUCiMjLGnS-13" value="" style="endArrow=classic;html=1;strokeWidth=2;exitX=1;exitY=0.5;exitDx=0;exitDy=0;entryX=0;entryY=0.5;entryDx=0;entryDy=0;edgeStyle=orthogonalEdgeStyle;rounded=0;" parent="1" source="e9_0gmz5ZAOUCiMjLGnS-9" edge="1" target="2YCkCbacvmEcMlOu-g6g-1">
          <mxGeometry width="50" height="50" relative="1" as="geometry">
            <mxPoint x="393" y="480" as="sourcePoint" />
            <mxPoint x="513" y="200" as="targetPoint" />
            <Array as="points">
              <mxPoint x="490" y="200" />
              <mxPoint x="490" y="535" />
            </Array>
          </mxGeometry>
        </mxCell>
        <mxCell id="e9_0gmz5ZAOUCiMjLGnS-14" value="" style="rounded=0;whiteSpace=wrap;html=1;" parent="1" vertex="1">
          <mxGeometry x="513" y="120" width="170" height="190" as="geometry" />
        </mxCell>
        <mxCell id="e9_0gmz5ZAOUCiMjLGnS-15" value="&lt;div style=&quot;text-indent: 0px&quot;&gt;&lt;span style=&quot;text-indent: -24px&quot;&gt;&lt;b&gt;MASK&lt;/b&gt;:&amp;nbsp;&lt;/span&gt;&lt;span style=&quot;font-family: &amp;#34;arial&amp;#34; ; text-indent: -24px&quot;&gt;Service = X, mode=X, method=X, user=X&amp;nbsp;&lt;/span&gt;&lt;/div&gt;" style="rounded=0;whiteSpace=wrap;html=1;" parent="1" vertex="1">
          <mxGeometry x="513" y="60" width="170" height="60" as="geometry" />
        </mxCell>
        <mxCell id="e9_0gmz5ZAOUCiMjLGnS-16" value="&lt;b&gt;&lt;font color=&quot;#ff0000&quot;&gt;HT-1&lt;/font&gt;&lt;/b&gt;" style="text;html=1;strokeColor=none;fillColor=none;align=center;verticalAlign=middle;whiteSpace=wrap;rounded=0;" parent="1" vertex="1">
          <mxGeometry x="578" y="320" width="40" height="20" as="geometry" />
        </mxCell>
        <mxCell id="e9_0gmz5ZAOUCiMjLGnS-19" value="" style="group" parent="1" vertex="1" connectable="0">
          <mxGeometry x="518" y="180" width="162.48" height="40" as="geometry" />
        </mxCell>
        <mxCell id="e9_0gmz5ZAOUCiMjLGnS-18" value="" style="rounded=0;whiteSpace=wrap;html=1;" parent="e9_0gmz5ZAOUCiMjLGnS-19" vertex="1">
          <mxGeometry x="-2" width="164.48" height="40" as="geometry" />
        </mxCell>
        <mxCell id="e9_0gmz5ZAOUCiMjLGnS-17" value="&lt;span style=&quot;color: rgb(0 , 0 , 0) ; font-family: &amp;#34;arial&amp;#34; ; font-style: normal ; font-weight: 400 ; letter-spacing: normal ; text-align: center ; text-indent: -24px ; text-transform: none ; word-spacing: 0px ; background-color: rgb(248 , 249 , 250) ; display: inline ; float: none&quot;&gt;&lt;font style=&quot;font-size: 8px&quot;&gt;Service = service-X, mode=local, method=testMethod, user=root&amp;nbsp;&lt;/font&gt;&lt;/span&gt;" style="text;whiteSpace=wrap;html=1;" parent="e9_0gmz5ZAOUCiMjLGnS-19" vertex="1">
          <mxGeometry x="10" width="150" height="30" as="geometry" />
        </mxCell>
        <mxCell id="e9_0gmz5ZAOUCiMjLGnS-20" value="BB" style="text;html=1;strokeColor=none;fillColor=none;align=center;verticalAlign=middle;whiteSpace=wrap;rounded=0;" parent="1" vertex="1">
          <mxGeometry x="460" y="350" width="26" height="20" as="geometry" />
        </mxCell>
        <mxCell id="e9_0gmz5ZAOUCiMjLGnS-21" value="FF" style="text;html=1;strokeColor=none;fillColor=none;align=center;verticalAlign=middle;whiteSpace=wrap;rounded=0;" parent="1" vertex="1">
          <mxGeometry x="683" y="190" width="40" height="20" as="geometry" />
        </mxCell>
        <mxCell id="e9_0gmz5ZAOUCiMjLGnS-22" value="Insert Rule 2" style="text;html=1;strokeColor=none;fillColor=none;align=center;verticalAlign=middle;whiteSpace=wrap;rounded=0;" parent="1" vertex="1">
          <mxGeometry x="3" y="180" width="80" height="20" as="geometry" />
        </mxCell>
        <mxCell id="2YCkCbacvmEcMlOu-g6g-1" value="" style="rounded=0;whiteSpace=wrap;html=1;" vertex="1" parent="1">
          <mxGeometry x="513" y="440" width="170" height="190" as="geometry" />
        </mxCell>
        <mxCell id="2YCkCbacvmEcMlOu-g6g-2" value="&lt;div style=&quot;text-indent: 0px&quot;&gt;&lt;span style=&quot;text-indent: -24px&quot;&gt;&lt;b&gt;MASK&lt;/b&gt;:&amp;nbsp;&lt;/span&gt;&lt;span style=&quot;font-family: &amp;#34;arial&amp;#34; ; text-indent: -24px&quot;&gt;Service = X, mode=X, method=0, user=X&amp;nbsp;&lt;/span&gt;&lt;/div&gt;" style="rounded=0;whiteSpace=wrap;html=1;" vertex="1" parent="1">
          <mxGeometry x="513" y="380" width="170" height="60" as="geometry" />
        </mxCell>
        <mxCell id="2YCkCbacvmEcMlOu-g6g-3" value="&lt;b&gt;&lt;font color=&quot;#ff0000&quot;&gt;HT-2&lt;/font&gt;&lt;/b&gt;" style="text;html=1;strokeColor=none;fillColor=none;align=center;verticalAlign=middle;whiteSpace=wrap;rounded=0;" vertex="1" parent="1">
          <mxGeometry x="578" y="640" width="40" height="20" as="geometry" />
        </mxCell>
        <mxCell id="2YCkCbacvmEcMlOu-g6g-4" value="" style="group" vertex="1" connectable="0" parent="1">
          <mxGeometry x="518" y="500" width="162.48" height="40" as="geometry" />
        </mxCell>
        <mxCell id="2YCkCbacvmEcMlOu-g6g-5" value="" style="rounded=0;whiteSpace=wrap;html=1;" vertex="1" parent="2YCkCbacvmEcMlOu-g6g-4">
          <mxGeometry x="-2" width="164.48" height="40" as="geometry" />
        </mxCell>
        <mxCell id="2YCkCbacvmEcMlOu-g6g-6" value="&lt;span style=&quot;color: rgb(0 , 0 , 0) ; font-family: &amp;#34;arial&amp;#34; ; font-style: normal ; font-weight: 400 ; letter-spacing: normal ; text-align: center ; text-indent: -24px ; text-transform: none ; word-spacing: 0px ; background-color: rgb(248 , 249 , 250) ; display: inline ; float: none&quot;&gt;&lt;font style=&quot;font-size: 8px&quot;&gt;Service = service-X, mode=local, user=root&amp;nbsp;&lt;/font&gt;&lt;/span&gt;" style="text;whiteSpace=wrap;html=1;" vertex="1" parent="2YCkCbacvmEcMlOu-g6g-4">
          <mxGeometry x="10" width="150" height="30" as="geometry" />
        </mxCell>
        <mxCell id="2YCkCbacvmEcMlOu-g6g-7" value="BB" style="text;html=1;strokeColor=none;fillColor=none;align=center;verticalAlign=middle;whiteSpace=wrap;rounded=0;" vertex="1" parent="1">
          <mxGeometry x="683" y="510" width="40" height="20" as="geometry" />
        </mxCell>
      </root>
    </mxGraphModel>
  </diagram>
</mxfile>
